:SAMPLES-PER-SECOND 24
:FULLY-SPECIFIED
:DEGREES
139
root  -2.30243 36.5557 29.2307 -160.734 74.6698 -160.766
RightUpLeg  1.80543 -20.1429 -20.4629
RightLeg  21.9235 13.9804 5.93265
RightFoot  -15.3547 0.681568 22.0552
RightToes  -1.74623e-010 0 -2.59999e-017
Spine  5.02018 4.04556 9.54521
Spine1  12.9355 7.10366 -9.12084
HEad  -34.8355 51.1406 -41.0102
LeftShoulder1  1.78764 -3.05827 -20.8357
LeftArm  -2.3887 4.25637 -31.7826
LeftForeArm  28.203 -59.6114 -16.7447
LeftHand  -0.580678 2.40479 22.3945
RightShoulder  2.51987 4.68369 24.6924
RightArm  24.6115 34.2887 63.0463
RightForeArm  152.486 61.9076 159.788
RightHand  -0.348375 -1.71024 -10.8336
LeftUpLeg  -30.3373 28.7735 16.1841
LeftLeg  34.9755 24.6572 17.7112
LeftFoot  9.64412 0.310101 -2.00586
LeftToes  -6.27559e-011 -2.10356e-011 8.24929e-012
140
root  -2.48459 36.6538 29.8495 -167.26 76.9126 -168.082
RightUpLeg  -1.70209 -18.0641 -21.3871
RightLeg  25.0871 13.9899 6.8401
RightFoot  -16.4155 0.906764 22.7212
RightToes  -1.74623e-010 0 -2.59999e-017
Spine  6.28177 2.97053 7.27753
Spine1  12.8263 5.56611 -7.96833
HEad  -36.2523 53.4185 -43.9735
LeftShoulder1  1.8873 -3.09723 -22.2727
LeftArm  -0.713134 4.66423 -36.3975
LeftForeArm  27.3587 -53.0339 -12.7182
LeftHand  -0.688648 1.70427 21.5742
RightShoulder  2.47756 4.64873 24.2849
RightArm  24.3464 30.7144 61.862
RightForeArm  153.702 62.2021 159.671
RightHand  -0.341869 -1.41425 -9.86653
LeftUpLeg  -27.4556 25.2289 16.9484
LeftLeg  30.4183 21.75 13.5452
LeftFoot  12.0471 1.01426 -5.25543
LeftToes  -6.27559e-011 -2.10356e-011 8.24929e-012
141
root  -2.21993 37.0351 30.0093 -174.506 76.9962 -175.701
RightUpLeg  -0.557257 -15.8551 -22.2047
RightLeg  22.5545 11.4278 4.98329
RightFoot  -15.8319 0.78938 22.5565
RightToes  -1.74623e-010 0 -2.59999e-017
Spine  5.91079 2.18981 5.9662
Spine1  12.2141 4.29305 -6.76761
HEad  -33.5427 55.5023 -41.7181
LeftShoulder1  1.89284 -3.14648 -22.1376
LeftArm  4.60439 6.15005 -41.6537
LeftForeArm  24.0646 -45.8259 -9.81392
LeftHand  -0.802665 0.972994 21.0275
RightShoulder  2.43069 4.55983 24.0263
RightArm  22.9624 23.9469 61.4685
RightForeArm  156.791 60.6672 161.127
RightHand  -0.31273 -1.74603 -9.79143
LeftUpLeg  -22.7016 19.2079 18.7139
LeftLeg  23.4563 16.0354 7.81812
LeftFoot  13.8257 2.1459 -9.97951
LeftToes  -6.27559e-011 -2.10356e-011 8.24929e-012
142
root  -1.82772 37.5066 29.8537 179.413 76.3712 178.206
RightUpLeg  2.69841 -14.7494 -23.3599
RightLeg  17.22 9.09583 3.00277
RightFoot  -12.6374 0.163328 22.0202
RightToes  -1.74623e-010 0 -2.59999e-017
Spine  5.34952 1.85934 6.28681
Spine1  11.5248 4.09691 -7.24653
HEad  -29.3494 56.2678 -37.4284
LeftShoulder1  1.94201 -3.29843 -22.2285
LeftArm  10.7099 7.08524 -45.3741
LeftForeArm  21.748 -39.2345 -7.76819
LeftHand  -0.819479 0.746434 20.4635
RightShoulder  2.44426 4.50494 24.4228
RightArm  21.1845 17.8639 60.5928
RightForeArm  158.16 57.7564 163.183
RightHand  -0.275888 -2.24968 -9.92725
LeftUpLeg  -18.5395 15.0674 19.1804
LeftLeg  18.0898 9.61887 3.83819
LeftFoot  14.3181 2.77532 -12.5308
LeftToes  -6.27559e-011 -2.10356e-011 8.24929e-012
143
root  -1.60502 37.7606 29.5416 173.619 75.471 172.192
RightUpLeg  3.76056 -15.5245 -25.8086
RightLeg  16.3504 9.79281 3.10126
RightFoot  -10.3562 -0.276746 23.4426
RightToes  -1.74623e-010 0 -2.59999e-017
Spine  5.38109 1.82488 6.42042
Spine1  10.7394 4.2914 -8.2503
HEad  -27.6404 55.4827 -35.269
LeftShoulder1  2.03627 -3.38407 -23.3024
LeftArm  15.5599 7.20728 -47.8727
LeftForeArm  18.1202 -32.9936 -6.27214
LeftHand  -0.950768 0.407811 22.0923
RightShoulder  2.44352 4.50874 24.398
RightArm  19.7004 15.2042 59.2252
RightForeArm  157.194 55.2751 164.528
RightHand  -0.287918 -2.34028 -10.6666
LeftUpLeg  -17.7914 13.9884 17.5184
LeftLeg  20.0553 1.11672 0.759478
LeftFoot  10.4671 2.69229 -14.2597
LeftToes  -6.27559e-011 -2.10356e-011 8.24929e-012
144
root  -1.57301 37.5806 29.112 170.896 74.0739 169.402
RightUpLeg  2.90715 -16.4903 -28.2272
RightLeg  20.0539 11.0483 4.23288
RightFoot  -10.3601 -0.284321 24.5367
RightToes  -1.74623e-010 0 -2.59999e-017
Spine  6.05461 1.78805 7.13105
Spine1  10.3393 4.52762 -9.25355
HEad  -28.3421 53.5804 -34.9512
LeftShoulder1  2.10357 -3.42737 -24.1303
LeftArm  21.7116 5.96759 -49.748
LeftForeArm  9.60156 -27.9458 -5.51737
LeftHand  -1.15298 0.312241 26.1687
RightShoulder  2.38956 4.47669 23.8138
RightArm  17.3686 16.2917 57.6862
RightForeArm  156.381 54.0428 165.111
RightHand  -0.295614 -2.42777 -11.2834
LeftUpLeg  -19.2459 14.7773 15.5845
LeftLeg  26.7664 -5.47507 -2.65834
LeftFoot  4.2256 2.14405 -15.7906
LeftToes  -6.27559e-011 -2.10356e-011 8.24929e-012
145
root  -1.63922 37.1194 28.7497 170.736 72.0496 169.553
RightUpLeg  2.24275 -15.7674 -29.5865
RightLeg  24.3362 10.5441 4.95975
RightFoot  -11.7017 0.00337208 25.5791
RightToes  -1.74623e-010 0 -2.59999e-017
Spine  7.34176 1.81102 7.16457
Spine1  10.5312 4.56397 -9.48723
HEad  -30.0245 50.9954 -35.2141
LeftShoulder1  2.15952 -3.56007 -24.3649
LeftArm  27.347 3.91306 -50.8075
LeftForeArm  3.6221 -26.4497 -5.49272
LeftHand  -1.14273 0.908644 29.2785
RightShoulder  2.34006 4.38858 23.5051
RightArm  13.3778 19.8528 55.0935
RightForeArm  154.847 54.0752 164.979
RightHand  -0.286357 -2.65773 -11.8039
LeftUpLeg  -21.7852 16.3606 14.0563
LeftLeg  32.7931 -6.64133 -4.21604
LeftFoot  0.963333 1.64213 -15.2111
LeftToes  -6.27559e-011 -2.10356e-011 8.24929e-012
146
root  -1.67933 36.4691 28.4493 172.121 69.2772 171.21
RightUpLeg  2.37452 -15.2636 -30.4658
RightLeg  28.31 9.68222 5.39392
RightFoot  -14.668 0.714745 27.4798
RightToes  -1.74623e-010 0 -2.59999e-017
Spine  7.59434 2.07155 5.46816
Spine1  12.2863 4.11137 -7.33715
HEad  -32.7448 47.9248 -35.719
LeftShoulder1  2.14773 -3.63825 -23.8395
LeftArm  29.8614 1.0754 -51.8122
LeftForeArm  3.83849 -27.0541 -5.62071
LeftHand  -0.969938 1.48063 28.4762
RightShoulder  2.36055 4.39503 23.7544
RightArm  8.06727 24.6154 51.2551
RightForeArm  151.739 55.8008 163.814
RightHand  -0.282666 -2.95499 -13.0695
LeftUpLeg  -26.2823 17.1232 12.8996
LeftLeg  39.2799 -6.14965 -4.99803
LeftFoot  -0.20185 1.25785 -12.8343
LeftToes  -6.27559e-011 -2.10356e-011 8.24929e-012
147
root  -1.53366 35.9052 27.9509 172.986 66.6112 172.878
RightUpLeg  4.67586 -16.0856 -32.0193
RightLeg  29.9978 9.46638 5.63934
RightFoot  -16.5807 1.21657 28.4712
RightToes  -1.74623e-010 0 -2.59999e-017
Spine  6.03706 2.51975 4.11552
Spine1  15.6718 3.79988 -4.60594
HEad  -34.463 45.5704 -35.0752
LeftShoulder1  2.07151 -3.53314 -23.1699
LeftArm  33.1629 -2.93513 -52.697
LeftForeArm  2.36459 -26.4605 -5.56167
LeftHand  -0.766307 1.95051 25.6059
RightShoulder  2.49394 4.59363 24.7162
RightArm  3.48176 27.8553 48.6156
RightForeArm  151.378 59.8679 161.205
RightHand  -0.153963 -4.14059 -13.2532
LeftUpLeg  -28.8218 16.5782 12.4203
LeftLeg  44.8325 -6.923 -6.92183
LeftFoot  -2.32757 0.942915 -11.7501
LeftToes  -6.27559e-011 -2.10356e-011 8.24929e-012
148
root  -1.18151 36.1272 27.2813 171.674 65.3302 173.171
RightUpLeg  8.98739 -15.8184 -33.6085
RightLeg  27.0422 9.38462 4.9544
RightFoot  -13.4478 0.468902 29.8842
RightToes  -1.74623e-010 0 -2.59999e-017
Spine  4.50102 3.25219 3.99765
Spine1  17.8778 4.39915 -3.94668
HEad  -32.4288 45.4059 -32.5919
LeftShoulder1  2.0592 -3.39823 -23.5888
LeftArm  36.738 -5.24198 -52.5915
LeftForeArm  -0.784833 -25.2177 -5.44145
LeftHand  -0.41638 3.46528 24.8342
RightShoulder  2.69454 4.85149 26.2333
RightArm  2.57381 25.6552 49.5956
RightForeArm  154.693 64.3574 157.906
RightHand  0.0358611 -5.98328 -11.1132
LeftUpLeg  -25.1831 15.6019 12.0144
LeftLeg  43.155 -7.30205 -6.87843
LeftFoot  -4.40298 0.763423 -12.1237
LeftToes  -6.27559e-011 -2.10356e-011 8.24929e-012
149
root  -0.788858 37.2304 26.6909 171.153 65.413 173.765
RightUpLeg  11.4657 -12.8895 -32.3602
RightLeg  22.3904 5.39474 2.24475
RightFoot  -4.22875 -1.98898 30.9594
RightToes  -1.74623e-010 0 -2.59999e-017
Spine  3.64838 4.15746 4.7045
Spine1  17.4935 5.40026 -4.27433
HEad  -28.7952 46.5785 -29.9706
LeftShoulder1  2.06939 -3.31102 -24.1466
LeftArm  36.0641 -3.45677 -52.1743
LeftForeArm  -1.02623 -25.494 -5.51661
LeftHand  -0.0406625 5.21918 26.5664
RightShoulder  2.82106 5.00193 27.1872
RightArm  5.37254 18.2211 52.9683
RightForeArm  156.79 65.7882 156.745
RightHand  0.0862687 -6.82807 -9.02045
LeftUpLeg  -18.7852 13.3045 11.6373
LeftLeg  34.992 -5.65934 -3.90175
LeftFoot  -3.088 0.908848 -12.3172
LeftToes  -6.27559e-011 -2.10356e-011 8.24929e-012
150
root  -0.536116 38.7015 26.4064 173.427 66.0386 175.936
RightUpLeg  9.73463 -10.4646 -28.3947
RightLeg  20.813 -3.49343 -1.70483
RightFoot  9.2691 -4.46318 25.0212
RightToes  -1.74623e-010 0 -2.59999e-017
Spine  2.57047 4.66405 5.98601
Spine1  16.6154 6.10963 -4.69019
HEad  -27.6524 47.6329 -29.1076
LeftShoulder1  2.00934 -3.226 -23.6105
LeftArm  32.9712 0.0959857 -51.5444
LeftForeArm  -1.46462 -27.6171 -6.03301
LeftHand  0.0594657 5.64315 26.851
RightShoulder  2.83543 5.04734 27.1776
RightArm  10.1994 11.3925 55.7761
RightForeArm  155.808 64.1295 158.221
RightHand  0.01031 -5.98777 -6.64609
LeftUpLeg  -14.3681 10.4465 11.9883
LeftLeg  26.3166 -3.24065 -1.39604
LeftFoot  3.95948 1.73457 -12.9947
LeftToes  -6.27559e-011 -2.10356e-011 8.24929e-012
151
root  -0.443496 39.9223 26.4095 175.061 66.785 177.482
RightUpLeg  6.94842 -12.5018 -25.6822
RightLeg  21.3193 -6.37357 -2.951
RightFoot  17.7985 -3.8985 15.433
RightToes  -1.74623e-010 0 -2.59999e-017
Spine  2.28506 4.48838 6.85024
Spine1  15.9223 6.33098 -5.88078
HEad  -28.1179 48.6757 -29.0624
LeftShoulder1  1.94678 -3.17637 -22.857
LeftArm  29.8934 3.35745 -49.3558
LeftForeArm  -1.76661 -30.8637 -6.84983
LeftHand  -0.050005 5.15873 22.6965
RightShoulder  2.80079 5.05973 26.7081
RightArm  15.0725 9.49349 56.7996
RightForeArm  153.893 62.0626 159.801
RightHand  -0.0375327 -4.76531 -2.62151
LeftUpLeg  -11.4426 10.1587 12.7035
LeftLeg  19.3699 -2.47414 -0.640518
LeftFoot  13.5682 3.05151 -14.1089
LeftToes  -6.27559e-011 -2.10356e-011 8.24929e-012
